<svg id="Layer_1" data-name="Layer 1" xmlns="http://www.w3.org/2000/svg" viewBox="0 0 1894.93 1690.34"><defs><style>.cls-1{fill:#2a395b;}.cls-2{fill:#66c187;}.cls-3{fill:#fff;}</style></defs><title>Artboard 12</title><rect class="cls-1" width="1894.93" height="1690.34"/><path class="cls-2" d="M1095.18,830.45c-74.76,74.76-196.4,74.75-271.15,0a190.48,190.48,0,0,1-50.72-90.2A50.69,50.69,0,0,0,799,711.44h12.58A149.08,149.08,0,0,0,1065,800.3a16.57,16.57,0,1,0-23.44-23.44A115.73,115.73,0,0,1,845,711.44h43.2a73.34,73.34,0,0,0,123.28,35.32,16.57,16.57,0,1,0-23.44-23.44,40.24,40.24,0,1,1,0-56.91A16.57,16.57,0,1,0,1011.49,643,73.24,73.24,0,0,0,888.22,678.3H845a115.81,115.81,0,0,1,196.57-65.42A16.57,16.57,0,1,0,1065,589.45a149,149,0,0,0-253.5,88.85H799a50.69,50.69,0,0,0-25.6-28.79,191.7,191.7,0,0,1,321.83-90.21,16.57,16.57,0,0,0,23.44-23.44A224.86,224.86,0,0,0,740.2,645.64a50.46,50.46,0,0,0,0,98.46,225,225,0,0,0,378.46,109.79,16.57,16.57,0,1,0-23.44-23.44ZM751.3,677.51a17.36,17.36,0,1,1-17.36,17.36A17.37,17.37,0,0,1,751.3,677.51Z"/><path class="cls-3" d="M602.31,1166.88v-69.79q0-27.57,14.75-40.53t38.48-12.95q24.46,0,39.45,12.11T710,1087q0,7.68-2.88,10.43t-9.84,2.76q-12.47,0-12.71-8.39-1.44-25.65-28.05-25.66-28.78,0-28.78,30.93v69.79q0,30.93,29.26,30.93a36,36,0,0,0,14.39-2.52,16.26,16.26,0,0,0,8.27-7.32,42,42,0,0,0,3.48-8.39,55.13,55.13,0,0,0,1.44-8.88q.72-8.38,12.47-8.39,7,0,10,2.76t3,10.43q0,19.91-15.11,32.37t-39.57,12.47q-23.74,0-38.36-12.95T602.31,1166.88Z"/><path class="cls-3" d="M733.71,1210.52V1051.76a6.57,6.57,0,0,1,3.72-6.11,20.84,20.84,0,0,1,18,0,6.58,6.58,0,0,1,3.72,6.11v66.18h59.71v-66.18a6.56,6.56,0,0,1,3.72-6.11,20.84,20.84,0,0,1,18,0,6.57,6.57,0,0,1,3.72,6.11v158.75a6.89,6.89,0,0,1-3.72,6.11,18.64,18.64,0,0,1-17.87,0q-3.84-2.26-3.84-6.11V1138.1H759.14v72.42a6.9,6.9,0,0,1-3.72,6.11,18.64,18.64,0,0,1-17.87,0Q733.71,1214.36,733.71,1210.52Z"/><path class="cls-3" d="M874.23,1166.88v-69.79q0-27.57,14.63-40.53t39.09-12.95q24.46,0,39.21,12.95t14.75,40.53v69.79q0,27.57-14.75,40.52t-39.21,12.95q-24.46,0-39.09-12.95T874.23,1166.88Zm25.42,0q0,30.93,28.3,30.93,13.67,0,21.1-7.68t7.43-23.25v-69.79q0-15.58-7.43-23.26t-21.1-7.67q-28.3,0-28.3,30.93Z"/><path class="cls-3" d="M1011.64,1210.52V1051.76a7.86,7.86,0,0,1,2.4-5.76,8.15,8.15,0,0,1,6-2.39h45.56q55.16,0,55.16,48.92,0,20.3-9.11,31.88t-24.7,15.4l33.58,63.22a7.2,7.2,0,0,1,1,3.6q0,4.81-4.92,8.91a16.05,16.05,0,0,1-10.43,4.08q-6.24,0-10.07-7.45l-35-68.8h-24.22v67.11a7,7,0,0,1-3.72,6.14,16.88,16.88,0,0,1-9,2.28,16.29,16.29,0,0,1-8.75-2.28A6.89,6.89,0,0,1,1011.64,1210.52Zm25.18-87.29h28.77q29.73,0,29.74-28.53t-29.74-28.54h-28.77Z"/><path class="cls-3" d="M1145.69,1210.52V1051.76a6.57,6.57,0,0,1,3.72-6.11,20.84,20.84,0,0,1,18,0,6.58,6.58,0,0,1,3.72,6.11v158.75a6.9,6.9,0,0,1-3.72,6.11,18.64,18.64,0,0,1-17.87,0Q1145.69,1214.36,1145.69,1210.52Z"/><path class="cls-3" d="M1190.36,1208.37a7.2,7.2,0,0,1,.24-2.15l47.62-155.42q3.05-8.62,17-8.62,14.25,0,17.3,8l47.48,155.39a8.35,8.35,0,0,1,.48,2.26q0,4.51-5.59,7.79a23.15,23.15,0,0,1-11.85,3.26q-7.56,0-9.39-5.21l-9.93-34.35h-58.95L1215,1213.6q-1.68,5.31-8.86,5.31a20,20,0,0,1-10.77-3.11Q1190.36,1212.69,1190.36,1208.37Zm40.22-49.18h47.6l-24-82.3Z"/></svg>