<svg id="Layer_1" data-name="Layer 1" xmlns="http://www.w3.org/2000/svg" viewBox="0 0 1894.93 828.68"><defs><style>.cls-1{fill:#2a395b;}.cls-2{fill:#66c187;}.cls-3{fill:#fff;}</style></defs><title>Artboard 10</title><rect class="cls-1" width="1894.93" height="828.68"/><path class="cls-2" d="M718.33,550c-74.76,74.76-196.4,74.75-271.15,0a190.48,190.48,0,0,1-50.72-90.2A50.69,50.69,0,0,0,422.1,431h12.58a149.08,149.08,0,0,0,253.5,88.86,16.57,16.57,0,1,0-23.44-23.44A115.73,115.73,0,0,1,468.17,431h43.2a73.34,73.34,0,0,0,123.28,35.32,16.57,16.57,0,1,0-23.44-23.44,40.24,40.24,0,1,1,0-56.91,16.57,16.57,0,1,0,23.44-23.44,73.24,73.24,0,0,0-123.28,35.32h-43.2A115.81,115.81,0,0,1,664.74,332.4,16.57,16.57,0,1,0,688.18,309a149,149,0,0,0-253.5,88.85H422.1A50.69,50.69,0,0,0,396.5,369a191.7,191.7,0,0,1,321.83-90.21,16.57,16.57,0,0,0,23.44-23.44A224.86,224.86,0,0,0,363.34,365.16a50.46,50.46,0,0,0,0,98.46A225,225,0,0,0,741.76,573.41,16.57,16.57,0,0,0,718.33,550ZM374.45,397a17.36,17.36,0,1,1-17.36,17.36A17.37,17.37,0,0,1,374.45,397Z"/><path class="cls-3" d="M825.19,451.26V378.92q0-28.58,15.29-42t39.9-13.42q25.36,0,40.9,12.55t15.54,32.44q0,8-3,10.81t-10.2,2.86q-12.92,0-13.17-8.7-1.49-26.6-29.08-26.6-29.84,0-29.83,32.07v72.35q0,32.07,30.33,32.07,9,0,14.92-2.61a16.87,16.87,0,0,0,8.58-7.58,43.49,43.49,0,0,0,3.6-8.7,57,57,0,0,0,1.49-9.2q.74-8.7,12.93-8.7,7.21,0,10.32,2.86t3.11,10.82q0,20.64-15.66,33.56t-41,12.93q-24.61,0-39.77-13.42T825.19,451.26Z"/><path class="cls-3" d="M961.42,496.51V331.93a6.82,6.82,0,0,1,3.86-6.34,21.66,21.66,0,0,1,18.65,0,6.83,6.83,0,0,1,3.85,6.34v68.61h61.9V331.93a6.81,6.81,0,0,1,3.85-6.34,21.66,21.66,0,0,1,18.65,0,6.82,6.82,0,0,1,3.85,6.34V496.51a7.16,7.16,0,0,1-3.85,6.34,19.33,19.33,0,0,1-18.52,0q-4-2.35-4-6.34V421.43h-61.9v75.08a7.17,7.17,0,0,1-3.85,6.34,19.33,19.33,0,0,1-18.52,0Q961.42,500.49,961.42,496.51Z"/><path class="cls-3" d="M1107.1,451.26V378.92q0-28.58,15.17-42t40.52-13.42q25.35,0,40.65,13.42t15.29,42v72.35q0,28.59-15.29,42t-40.65,13.42q-25.36,0-40.52-13.42T1107.1,451.26Zm26.35,0q0,32.07,29.34,32.07,14.17,0,21.88-8t7.7-24.11V378.92q0-16.15-7.7-24.11t-21.88-8q-29.34,0-29.34,32.07Z"/><path class="cls-3" d="M1249.54,496.51V331.93a8.15,8.15,0,0,1,2.49-6,8.45,8.45,0,0,1,6.22-2.48h47.23q57.18,0,57.18,50.71,0,21-9.45,33.05t-25.61,16l34.81,65.53a7.49,7.49,0,0,1,1,3.74q0,5-5.1,9.23A16.65,16.65,0,0,1,1347.5,506q-6.47,0-10.44-7.73l-36.29-71.32h-25.11v69.58a7.2,7.2,0,0,1-3.86,6.36,17.45,17.45,0,0,1-9.32,2.37,16.93,16.93,0,0,1-9.07-2.36A7.15,7.15,0,0,1,1249.54,496.51ZM1275.65,406h29.83q30.82,0,30.83-29.58t-30.83-29.59h-29.83Z"/><path class="cls-3" d="M1388.52,496.51V331.93a6.82,6.82,0,0,1,3.86-6.34,21.66,21.66,0,0,1,18.65,0,6.83,6.83,0,0,1,3.85,6.34V496.51a7.17,7.17,0,0,1-3.85,6.34,19.33,19.33,0,0,1-18.52,0Q1388.52,500.49,1388.52,496.51Z"/><path class="cls-3" d="M1434.83,494.29a7.47,7.47,0,0,1,.25-2.23l49.37-161.13q3.16-8.93,17.67-8.94,14.77,0,17.94,8.33l49.22,161.1a8.69,8.69,0,0,1,.5,2.34q0,4.69-5.79,8.07a24,24,0,0,1-12.29,3.38q-7.84,0-9.74-5.41l-10.29-35.61h-61.11l-10.17,35.52q-1.74,5.5-9.18,5.5A20.81,20.81,0,0,1,1440,502Q1434.83,498.76,1434.83,494.29Zm41.7-51h49.35L1501,358Z"/></svg>